<svg width="85" height="68" viewBox="0 0 85 68" fill="none" xmlns="http://www.w3.org/2000/svg">
<g clip-path="url(#clip0_33_2)">
<path d="M17.6548 0C12.8048 0 9.21586 4.26167 9.37656 8.88333C9.53096 13.3233 9.33041 19.0743 7.8884 23.764C6.44207 28.4673 3.99566 31.4467 0 31.8293V36.148C3.99566 36.5307 6.44207 39.51 7.8884 44.2137C9.33041 48.9033 9.53096 54.6537 9.37656 59.094C9.21586 63.715 12.8048 67.9773 17.6554 67.9773H67.3515C72.2019 67.9773 75.7898 63.7157 75.6291 59.094C75.475 54.654 75.6752 48.9033 77.1172 44.2137C78.5646 39.5103 81.0043 36.5303 85 36.148V31.8293C81.0043 31.4467 78.5646 28.4673 77.1176 23.764C75.6752 19.075 75.475 13.3237 75.6291 8.88333C75.7898 4.26233 72.2019 0 67.3515 0H17.6541H17.6548ZM57.6273 41.8443C57.6273 48.2083 52.8992 52.0677 45.0527 52.0677H31.695C31.313 52.0676 30.9466 51.9152 30.6765 51.6439C30.4064 51.3727 30.2547 51.0049 30.2547 50.6213V17.356C30.2546 17.166 30.2919 16.9779 30.3643 16.8024C30.4366 16.6269 30.5428 16.4674 30.6765 16.3331C30.8103 16.1987 30.9692 16.0922 31.144 16.0195C31.3188 15.9468 31.5061 15.9093 31.6954 15.9093H44.9763C51.519 15.9093 55.8128 19.4677 55.8128 24.9303C55.8128 28.7647 52.9241 32.1973 49.2442 32.7983V32.9987C54.2542 33.5503 57.6273 37.0333 57.6273 41.8443ZM43.5957 20.4943H35.9799V31.2943H42.3947C47.3533 31.2943 50.0879 29.2897 50.0879 25.7063C50.0879 22.3487 47.7365 20.4943 43.596 20.4943H43.5957ZM35.9799 35.5797V47.4813H43.8763C49.0387 47.4813 51.774 45.4017 51.774 41.493C51.774 37.5837 48.9627 35.579 43.5442 35.579H35.9799V35.5797Z" fill="#7E13F8"/>
</g>
<defs>
<clipPath id="clip0_33_2">
<rect width="85" height="68" fill="white"/>
</clipPath>
</defs>
</svg>
