<svg width="85" height="52" viewBox="0 0 85 52" fill="none" xmlns="http://www.w3.org/2000/svg">
<g clip-path="url(#clip0_12_137)">
<path d="M42.0202 51.8499C41.7325 51.8499 41.4639 51.7734 41.2144 51.6395L38.6625 50.1275C38.2787 49.9168 38.4706 49.8403 38.5859 49.8021C39.1038 49.6298 39.1998 49.5914 39.737 49.2854C39.7946 49.247 39.8715 49.2662 39.9289 49.3044L41.8861 50.4719C41.9628 50.5102 42.0587 50.5102 42.1162 50.4719L49.772 46.0506C49.8487 46.0124 49.8872 45.9357 49.8872 45.8401V37.0167C49.8872 36.9208 49.8487 36.8445 49.772 36.806L42.1162 32.4039C42.0395 32.3655 41.9435 32.3655 41.8861 32.4039L34.2303 36.806C34.1536 36.8443 34.115 36.94 34.115 37.0165V45.84C34.115 45.9166 34.1536 46.0122 34.2303 46.0506L36.3217 47.2564C37.4538 47.8305 38.1637 47.1607 38.1637 46.4908V37.7821C38.1637 37.6673 38.2596 37.5524 38.3939 37.5524H39.3724C39.4876 37.5524 39.6027 37.6481 39.6027 37.7821V46.4908C39.6027 48.0028 38.7776 48.8833 37.3386 48.8833C36.8973 48.8833 36.552 48.8833 35.5733 48.4047L33.5587 47.2564C33.0599 46.9694 32.7529 46.4333 32.7529 45.8592V37.0357C32.7529 36.4616 33.0599 35.9255 33.5587 35.6385L41.2144 31.2172C41.6942 30.9492 42.3466 30.9492 42.8262 31.2172L50.4819 35.6385C50.9807 35.9255 51.2879 36.4616 51.2879 37.0357V45.8592C51.2879 46.4333 50.9807 46.9694 50.4819 47.2564L42.8262 51.6777C42.5767 51.7926 42.289 51.8499 42.0204 51.8499H42.0202ZM44.3803 45.7827C41.0226 45.7827 40.3318 44.2515 40.3318 42.95C40.3318 42.8351 40.4278 42.7203 40.5621 42.7203H41.5599C41.6749 42.7203 41.7709 42.7968 41.7709 42.9117C41.9244 43.9261 42.3657 44.4237 44.3995 44.4237C46.0112 44.4237 46.7022 44.06 46.7022 43.1987C46.7022 42.7011 46.5101 42.3376 43.9966 42.0887C41.9052 41.878 40.6005 41.4188 40.6005 39.7536C40.6005 38.2032 41.9053 37.2845 44.0926 37.2845C46.5485 37.2845 47.7574 38.1267 47.9109 39.964C47.9109 40.0216 47.8917 40.0789 47.8533 40.1364C47.8148 40.1746 47.7574 40.2129 47.6998 40.2129H46.702C46.6061 40.2129 46.5101 40.1364 46.491 40.0406C46.2608 38.9881 45.6659 38.6434 44.0926 38.6434C42.3273 38.6434 42.1162 39.256 42.1162 39.7152C42.1162 40.2703 42.3657 40.4426 44.7449 40.7488C47.1049 41.0551 48.2179 41.4953 48.2179 43.1413C48.1987 44.8256 46.8172 45.7827 44.3803 45.7827Z" fill="#539E43"/>
<path d="M18.2664 17.3408C18.2664 16.9964 18.0745 16.6708 17.7675 16.4986L9.63206 11.8285C9.49759 11.7518 9.34419 11.7136 9.19079 11.6944H9.11393C8.96053 11.6944 8.80697 11.7518 8.67266 11.8285L0.53723 16.4986C0.230101 16.6708 0.038353 16.9962 0.038353 17.3408L0.0576108 29.8965C0.0576108 30.0687 0.153568 30.241 0.306966 30.3176C0.460531 30.4134 0.652279 30.4134 0.786751 30.3176L5.62196 27.5615C5.92892 27.3892 6.12083 27.0638 6.12083 26.7194V20.8434C6.12083 20.4989 6.31258 20.1735 6.61971 20.0013L8.67266 18.8145C8.82623 18.7188 8.99888 18.6804 9.17154 18.6804C9.34419 18.6804 9.51685 18.7188 9.65132 18.8145L11.7043 20.0013C12.0114 20.1735 12.2031 20.4987 12.2031 20.8434V26.7194C12.2031 27.0638 12.3951 27.3892 12.702 27.5615L17.5372 30.3176C17.6119 30.3646 17.6984 30.3894 17.7867 30.3894C17.8749 30.3894 17.9614 30.3646 18.0361 30.3176C18.1897 30.241 18.2856 30.0687 18.2856 29.8965L18.2664 17.3408ZM57.3702 0.0574453C57.2168 -0.0192298 57.0249 -0.0192298 56.8904 0.0574453C56.737 0.153165 56.6411 0.306184 56.6411 0.478413V12.9195C56.6411 13.0343 56.5836 13.149 56.4684 13.2257C56.3534 13.283 56.2381 13.283 56.1231 13.2257L54.0892 12.0582C53.9401 11.9735 53.7715 11.929 53.5999 11.929C53.4283 11.929 53.2597 11.9735 53.1106 12.0582L44.9751 16.7475C44.6682 16.9197 44.4763 17.2451 44.4763 17.5896V26.9489C44.4763 27.2934 44.6682 27.6189 44.9751 27.7912L53.1106 32.4804C53.2597 32.5651 53.4283 32.6097 53.5999 32.6097C53.7715 32.6097 53.9401 32.5651 54.0892 32.4804L62.2247 27.7912C62.5316 27.6189 62.7235 27.2935 62.7235 26.9489V3.61746C62.7235 3.25379 62.5316 2.92854 62.2247 2.75615L57.3704 0.0574453H57.3702ZM56.622 23.8675C56.622 23.9632 56.5836 24.0397 56.5067 24.078L53.7247 25.6857C53.6858 25.7046 53.6431 25.7144 53.5999 25.7144C53.5567 25.7144 53.514 25.7046 53.4751 25.6857L50.6931 24.078C50.6162 24.0397 50.5778 23.944 50.5778 23.8675V20.6519C50.5778 20.5562 50.6162 20.4797 50.6931 20.4414L53.4751 18.8336C53.514 18.8147 53.5567 18.8048 53.5999 18.8048C53.6431 18.8048 53.6858 18.8147 53.7247 18.8336L56.5067 20.4414C56.5836 20.4795 56.622 20.5754 56.622 20.6519V23.8675ZM84.4435 20.5754C84.7507 20.4032 84.9233 20.0778 84.9233 19.7332V17.4556C84.9233 17.1111 84.7314 16.7857 84.4435 16.6135L76.3657 11.9434C76.2166 11.8587 76.048 11.8142 75.8764 11.8142C75.7048 11.8142 75.5362 11.8587 75.387 11.9434L67.2516 16.6325C66.9445 16.8048 66.7527 17.1302 66.7527 17.4746V26.8341C66.7527 27.1786 66.9446 27.504 67.2516 27.6762L75.3294 32.2698C75.6366 32.442 76.0011 32.442 76.289 32.2698L81.1817 29.5522C81.3352 29.4755 81.4312 29.3033 81.4312 29.1311C81.4312 28.9588 81.3352 28.7866 81.1817 28.7099L73.0079 24.0207C72.8543 23.9249 72.7584 23.7719 72.7584 23.5997V20.6713C72.7584 20.4991 72.8543 20.3268 73.0079 20.2502L75.5597 18.7955C75.6344 18.7486 75.7209 18.7237 75.8091 18.7237C75.8974 18.7237 75.9839 18.7486 76.0586 18.7955L78.6106 20.2502C78.7641 20.3459 78.8599 20.4989 78.8599 20.6713V22.9681C78.8599 23.1403 78.9559 23.3125 79.1094 23.389C79.1841 23.436 79.2706 23.4609 79.3589 23.4609C79.4472 23.4609 79.5336 23.436 79.6083 23.389L84.4435 20.5754Z" fill="#D6D6D6"/>
<path d="M75.7516 20.1351C75.7801 20.1164 75.8135 20.1064 75.8476 20.1064C75.8817 20.1064 75.915 20.1164 75.9435 20.1351L77.4978 21.0347C77.5552 21.0731 77.5935 21.1304 77.5935 21.2069V23.0062C77.5935 23.0827 77.5554 23.1402 77.4978 23.1784L75.9435 24.078C75.915 24.0967 75.8817 24.1067 75.8476 24.1067C75.8135 24.1067 75.7801 24.0967 75.7516 24.078L74.1975 23.1784C74.1399 23.1402 74.1016 23.0827 74.1016 23.0062V21.2071C74.1016 21.1304 74.1398 21.0729 74.1975 21.0348L75.7516 20.1351Z" fill="#539E43"/>
<path d="M31.8702 11.9817C31.7211 11.897 31.5525 11.8525 31.3809 11.8525C31.2094 11.8525 31.0408 11.897 30.8917 11.9817L22.8139 16.6323C22.5067 16.8046 22.3341 17.13 22.3341 17.4744V26.7957C22.3341 27.1402 22.526 27.4656 22.8139 27.6378L30.8917 32.2888C31.0408 32.3735 31.2094 32.418 31.3809 32.418C31.5525 32.418 31.7211 32.3735 31.8702 32.2888L39.9482 27.6378C40.2551 27.4656 40.428 27.1402 40.428 26.7957V17.4746C40.428 17.1302 40.2359 16.8047 39.9482 16.6325L31.8702 11.9817Z" fill="url(#paint0_linear_12_137)"/>
</g>
<defs>
<linearGradient id="paint0_linear_12_137" x1="34.6719" y1="15.4488" x2="25.849" y2="29.3465" gradientUnits="userSpaceOnUse">
<stop stop-color="#41873F"/>
<stop offset="0.3288" stop-color="#418B3D"/>
<stop offset="0.6352" stop-color="#419637"/>
<stop offset="0.9319" stop-color="#3FA92D"/>
<stop offset="1" stop-color="#3FAE2A"/>
</linearGradient>
<clipPath id="clip0_12_137">
<rect width="85" height="52" fill="white"/>
</clipPath>
</defs>
</svg>
