<svg width="64" height="64" viewBox="0 0 64 64" fill="none" xmlns="http://www.w3.org/2000/svg">
<g clip-path="url(#clip0_14_162)">
<path d="M31.729 0.0180664C15.521 0.0180664 16.533 7.07438 16.533 7.07438L16.551 14.3849H32.018V16.5798H10.4078C10.4078 16.5798 0.0362549 15.3989 0.0362549 31.8168C0.0362549 48.2352 9.08875 47.6529 9.08875 47.6529H14.4913V40.0341C14.4913 40.0341 14.2 30.9461 23.3993 30.9461H38.7398C38.7398 30.9461 47.3585 31.0859 47.3585 22.5837V8.5258C47.3585 8.5258 48.6675 0.0180664 31.729 0.0180664ZM23.2005 4.93427C23.566 4.93394 23.928 5.00597 24.2657 5.14623C24.6034 5.2865 24.9103 5.49225 25.1688 5.75171C25.4272 6.01116 25.6322 6.31924 25.7719 6.6583C25.9116 6.99736 25.9833 7.36075 25.983 7.72768C25.9833 8.09461 25.9116 8.458 25.7719 8.79707C25.6322 9.13613 25.4272 9.4442 25.1688 9.70366C24.9103 9.96312 24.6034 10.1689 24.2657 10.3091C23.928 10.4494 23.566 10.5214 23.2005 10.5211C22.835 10.5214 22.473 10.4494 22.1353 10.3091C21.7976 10.1689 21.4907 9.96312 21.2322 9.70366C20.9738 9.4442 20.7689 9.13613 20.6291 8.79707C20.4894 8.458 20.4177 8.09461 20.418 7.72768C20.4177 7.36075 20.4894 6.99736 20.6291 6.6583C20.7689 6.31924 20.9738 6.01116 21.2322 5.75171C21.4907 5.49225 21.7976 5.2865 22.1353 5.14623C22.473 5.00597 22.835 4.93394 23.2005 4.93427Z" fill="url(#paint0_linear_14_162)"/>
<path d="M32.1892 63.7806C48.3972 63.7806 47.3852 56.7243 47.3852 56.7243L47.3672 49.414H31.9V47.2192H53.5102C53.5102 47.2192 63.8817 48.4 63.8817 31.9817C63.8817 15.5635 54.8292 16.1458 54.8292 16.1458H49.4267V23.7643C49.4267 23.7643 49.718 32.8523 40.5187 32.8523H25.1782C25.1782 32.8523 16.5595 32.7125 16.5595 41.215V55.2731C16.5595 55.2731 15.2507 63.7806 32.189 63.7806H32.1892ZM40.7177 58.8649C40.3522 58.8653 39.9903 58.7932 39.6525 58.653C39.3148 58.5127 39.0079 58.3069 38.7495 58.0475C38.491 57.788 38.2861 57.48 38.1464 57.1409C38.0067 56.8018 37.9349 56.4384 37.9352 56.0715C37.9349 55.7046 38.0066 55.3411 38.1463 55.0021C38.286 54.663 38.4909 54.3549 38.7494 54.0954C39.0078 53.8359 39.3147 53.6301 39.6525 53.4898C39.9902 53.3496 40.3522 53.2775 40.7177 53.2779C41.0832 53.2775 41.4452 53.3495 41.7829 53.4898C42.1207 53.6301 42.4276 53.8358 42.686 54.0953C42.9444 54.3547 43.1494 54.6628 43.2891 55.0019C43.4288 55.3409 43.5006 55.7043 43.5002 56.0713C43.5006 56.4382 43.4288 56.8016 43.2891 57.1406C43.1494 57.4797 42.9444 57.7878 42.686 58.0472C42.4276 58.3067 42.1207 58.5124 41.7829 58.6527C41.4452 58.793 41.0832 58.865 40.7177 58.8647V58.8649Z" fill="url(#paint1_linear_14_162)"/>
</g>
<defs>
<linearGradient id="paint0_linear_14_162" x1="6.17179" y1="5.75313" x2="37.9343" y2="37.0759" gradientUnits="userSpaceOnUse">
<stop stop-color="#387EB8"/>
<stop offset="1" stop-color="#366994"/>
</linearGradient>
<linearGradient id="paint1_linear_14_162" x1="25.5923" y1="25.9465" x2="59.6954" y2="58.0594" gradientUnits="userSpaceOnUse">
<stop stop-color="#FFE052"/>
<stop offset="1" stop-color="#FFC331"/>
</linearGradient>
<clipPath id="clip0_14_162">
<rect width="64" height="64" fill="white"/>
</clipPath>
</defs>
</svg>
