<svg width="64" height="64" viewBox="0 0 64 64" fill="none" xmlns="http://www.w3.org/2000/svg">
<path d="M58 20.464C58.0192 19.5921 57.7993 18.7316 57.364 17.976C56.9073 17.234 56.2611 16.6272 55.492 16.218C48.5667 12.394 41.638 8.57197 34.706 4.75197C33.8702 4.24917 32.9116 3.98752 31.9362 3.99599C30.9609 4.00446 30.0069 4.28273 29.18 4.79997C26.424 6.35797 12.63 13.93 8.518 16.212C7.7355 16.605 7.08228 17.2144 6.63593 17.9678C6.18957 18.7212 5.96886 19.5869 6 20.462V43.54C5.9798 44.3922 6.18689 45.2343 6.6 45.98C7.05933 46.7432 7.71929 47.3658 8.508 47.78C12.62 50.062 26.416 57.634 29.172 59.192C29.9986 59.7098 30.9523 59.9888 31.9277 59.998C32.903 60.0071 33.8618 59.7462 34.698 59.244C41.618 55.416 48.542 51.594 55.47 47.778C56.2589 47.3633 56.9193 46.7409 57.38 45.978C57.7931 45.2323 58.0002 44.3901 57.98 43.538V20.464" fill="#659AD2"/>
<path d="M57.098 46.342C57.2026 46.2262 57.3008 46.1046 57.392 45.978C57.8051 45.2324 58.0122 44.3902 57.992 43.538V20.464C58.0112 19.5922 57.7913 18.7317 57.356 17.976C57.284 17.858 57.178 17.766 57.096 17.656L32 32L57.098 46.342Z" fill="#00599C"/>
<path d="M57.098 46.342L32 32L6.902 46.342C7.3264 46.9374 7.87941 47.4295 8.52 47.782C12.632 50.064 26.428 57.636 29.184 59.194C30.0106 59.7118 30.9643 59.9908 31.9397 60C32.915 60.0092 33.8738 59.7482 34.71 59.246C41.63 55.418 48.554 51.596 55.482 47.78C56.1219 47.4282 56.6742 46.9366 57.098 46.342Z" fill="#004482"/>
<path d="M39.2 36.04C38.3091 37.6244 36.9194 38.8698 35.2472 39.5825C33.575 40.2951 31.7142 40.435 29.9543 39.9803C28.1944 39.5256 26.6341 38.5019 25.5164 37.0685C24.3986 35.6351 23.7861 33.8724 23.7741 32.0547C23.7621 30.2371 24.3513 28.4664 25.45 27.0184C26.5487 25.5704 28.0953 24.5261 29.849 24.0482C31.6028 23.5704 33.4653 23.6856 35.1468 24.3761C36.8282 25.0666 38.2342 26.2935 39.146 27.866L46.376 23.72C44.5408 20.5706 41.7211 18.1119 38.3511 16.7227C34.9811 15.3336 31.2478 15.0909 27.7264 16.0322C24.2049 16.9735 21.0907 19.0465 18.8633 21.9319C16.6359 24.8173 15.419 28.355 15.4 32C15.3964 34.8904 16.1552 37.7306 17.6 40.234C19.063 42.7626 21.1659 44.8613 23.6974 46.3193C26.2288 47.7773 29.0995 48.5431 32.0208 48.5396C34.9421 48.5362 37.811 47.7636 40.339 46.2997C42.867 44.8357 44.965 42.732 46.422 40.2L39.2 36.04Z" fill="white"/>
<path d="M48.152 31.076H46.3V29.234H44.45V31.076H42.598V32.922H44.45V34.762H46.3V32.922H48.152V31.076ZM55.098 31.076H53.246V29.234H51.394V31.076H49.542V32.922H51.394V34.762H53.246V32.922H55.098V31.076Z" fill="white"/>
</svg>
