<svg width="68" height="68" viewBox="0 0 68 68" fill="none" xmlns="http://www.w3.org/2000/svg">
<g clip-path="url(#clip0_419_2)">
<path d="M68 52.666C67.0103 53.0403 65.9179 53.0395 64.9287 52.6637C63.9396 52.2879 63.1223 51.5631 62.6308 50.626L52.8558 37.1082L51.4392 35.2184L40.0973 50.643C39.6355 51.5408 38.8624 52.2396 37.9228 52.6088C36.9831 52.978 35.9411 52.9923 34.9917 52.649L49.606 33.0424L36.0117 15.3312C36.9892 14.9789 38.0582 14.9743 39.0387 15.318C40.0192 15.6617 40.8514 16.3327 41.395 17.2182L51.527 30.9032L61.7157 17.2749C62.1811 16.3931 62.9543 15.7131 63.8884 15.3641C64.8224 15.0152 65.8521 15.0216 66.7817 15.3822L61.506 22.3834L54.3603 31.6852C54.1619 31.8622 54.0031 32.0792 53.8944 32.3218C53.7857 32.5645 53.7295 32.8274 53.7295 33.0934C53.7295 33.3593 53.7857 33.6222 53.8944 33.8649C54.0031 34.1076 54.1619 34.3245 54.3603 34.5015L67.9717 52.6689L68 52.666ZM0.00567014 32.7987L1.19567 26.9195C4.46534 15.2944 17.7933 10.4579 26.962 17.6545C32.3312 21.8734 33.6713 27.846 33.4078 34.578H3.162C2.67184 46.5999 11.3475 53.8589 22.44 50.15C24.2382 49.5027 25.8478 48.4195 27.1245 46.9974C28.4013 45.5753 29.3053 43.8587 29.7557 42.0014C30.3422 40.1144 31.3083 39.7914 33.082 40.3354C32.7864 42.6371 31.9728 44.8419 30.7022 46.7838C29.4316 48.7257 27.7372 50.3542 25.7465 51.5469C22.4582 53.3455 18.6853 54.0584 14.9674 53.5837C11.2495 53.1089 7.77693 51.4707 5.04617 48.9034C2.34609 45.8643 0.714219 42.0254 0.399503 37.9724C0.399503 37.3065 0.172837 36.6832 0.0198368 36.0854C0.00604422 34.9908 -0.000567029 33.8962 3.47188e-06 32.8015L0.00567014 32.7987ZM3.19884 31.9884H30.5518C30.3818 23.273 24.8823 17.0907 17.5468 17.034C9.38117 16.9207 3.53884 22.967 3.179 31.9487L3.19884 31.9884Z" fill="white"/>
</g>
<defs>
<clipPath id="clip0_419_2">
<rect width="68" height="68" fill="white"/>
</clipPath>
</defs>
</svg>
