<svg width="64" height="64" viewBox="0 0 64 64" fill="none" xmlns="http://www.w3.org/2000/svg">
<path d="M6.93333 28.24L22.3467 12.8L26.8533 17.3333C26.2133 19.6 27.2533 22.08 29.3333 23.28V38.0533C27.7333 38.96 26.6667 40.6933 26.6667 42.6667C26.6667 44.0812 27.2286 45.4377 28.2288 46.4379C29.229 47.4381 30.5855 48 32 48C33.4145 48 34.771 47.4381 35.7712 46.4379C36.7714 45.4377 37.3333 44.0812 37.3333 42.6667C37.3333 40.6933 36.2667 38.96 34.6667 38.0533V25.0933L40.1867 30.6667C40 31.0667 40 31.52 40 32C40 33.4145 40.5619 34.771 41.5621 35.7712C42.5623 36.7714 43.9188 37.3333 45.3333 37.3333C46.7478 37.3333 48.1044 36.7714 49.1046 35.7712C50.1048 34.771 50.6667 33.4145 50.6667 32C50.6667 30.5855 50.1048 29.229 49.1046 28.2288C48.1044 27.2286 46.7478 26.6667 45.3333 26.6667C44.8533 26.6667 44.4 26.6667 44 26.8533L37.1467 20C37.4778 18.7649 37.3494 17.4516 36.7854 16.304C36.2214 15.1564 35.2601 14.2524 34.08 13.76C32.9333 13.3333 31.7333 13.2267 30.6667 13.52L26.1333 9.01333L28.24 6.93333C30.32 4.82667 33.68 4.82667 35.76 6.93333L57.0667 28.24C59.1733 30.32 59.1733 33.68 57.0667 35.76L35.76 57.0667C33.68 59.1733 30.32 59.1733 28.24 57.0667L6.93333 35.76C4.82667 33.68 4.82667 30.32 6.93333 28.24Z" fill="#DD4C35"/>
</svg>
