<svg width="73" height="64" viewBox="0 0 73 64" fill="none" xmlns="http://www.w3.org/2000/svg">
<g clip-path="url(#clip0_12_90)">
<path d="M61.5285 43.5622C61.8369 43.3832 62.0933 43.1253 62.272 42.8144C62.4507 42.5035 62.5453 42.1505 62.5465 41.791L62.583 29.927C62.584 29.5674 62.6787 29.2144 62.8574 28.9035C63.036 28.5925 63.2925 28.3346 63.601 28.1555L69.9622 24.4614C70.2705 24.2823 70.62 24.1884 70.9755 24.189C71.3311 24.1896 71.6802 24.2846 71.9879 24.4647C72.2956 24.6447 72.5511 24.9034 72.7288 25.2148C72.9064 25.5261 72.9999 25.8792 73 26.2387V47.8078C73 48.1685 72.9059 48.5227 72.7271 48.8348C72.5484 49.147 72.2914 49.4059 71.982 49.5854L47.9747 63.5262C47.668 63.7042 47.3206 63.7981 46.9669 63.7984C46.6133 63.7988 46.2657 63.7056 45.9586 63.5282L27.1184 52.6338C26.808 52.4546 26.5499 52.1957 26.3704 51.8832C26.1909 51.5707 26.0962 51.2158 26.0961 50.8545V39.9785C26.0961 39.9664 26.1103 39.9583 26.1226 39.9641C26.1326 39.9704 26.1468 39.9641 26.1468 39.9497V39.9376C26.1468 39.9295 26.1508 39.9211 26.1591 39.9171L41.6762 30.9049C41.6904 30.8966 41.6841 30.8741 41.6679 30.8741C41.6636 30.8741 41.6594 30.8723 41.6564 30.8693C41.6533 30.8662 41.6516 30.862 41.6516 30.8576L41.6821 20.195C41.6836 19.8344 41.591 19.4798 41.4136 19.167C41.2362 18.8542 40.9803 18.5942 40.6718 18.4133C40.3633 18.2324 40.013 18.137 39.6563 18.1366C39.2997 18.1363 38.9492 18.2311 38.6404 18.4114L27.1081 25.1299C26.8003 25.3091 26.4514 25.4034 26.0962 25.4034C25.7411 25.4034 25.3921 25.3091 25.0843 25.1299L13.5156 18.3955C13.2074 18.2161 12.8579 18.1217 12.5022 18.1219C12.1466 18.1222 11.7972 18.217 11.4892 18.3968C11.1813 18.5767 10.9255 18.8353 10.7476 19.1467C10.5697 19.458 10.476 19.8112 10.4758 20.1708V39.4417C10.4761 39.8009 10.383 40.1538 10.2059 40.4652C10.0287 40.7766 9.77383 41.0354 9.46663 41.2159C9.15942 41.3963 8.81073 41.4919 8.45545 41.4932C8.10017 41.4946 7.75079 41.4015 7.4423 41.2233L1.022 37.5119C0.711113 37.3324 0.452784 37.0728 0.273276 36.7596C0.0937686 36.4465 -0.000517581 36.0908 2.13698e-06 35.7288L0.0570334 2.04524C0.057943 1.68627 0.152073 1.33384 0.330006 1.02319C0.50794 0.712544 0.763438 0.454579 1.07094 0.275101C1.37845 0.0956234 1.72718 0.000924768 2.08225 0.000478543C2.43732 3.23177e-05 2.78629 0.0938542 3.09423 0.272559L25.0863 13.042C25.3936 13.2204 25.7418 13.3143 26.0962 13.3143C26.4506 13.3143 26.7988 13.2204 27.1061 13.042L49.0916 0.271982C49.4001 0.0928561 49.7497 -0.00108936 50.1054 -0.000423734C50.4611 0.000241889 50.8104 0.0954952 51.1182 0.275774C51.426 0.456054 51.6814 0.715015 51.8589 1.02666C52.0364 1.33831 52.1297 1.69168 52.1294 2.0513V35.7427C52.1296 36.1031 52.0358 36.4572 51.8575 36.7693C51.6792 37.0814 51.4226 37.3404 51.1137 37.5203L39.5996 44.2241C39.2904 44.4043 39.0336 44.6639 38.8554 44.9766C38.6771 45.2893 38.5837 45.644 38.5845 46.0049C38.5853 46.3658 38.6803 46.7201 38.86 47.032C39.0396 47.3438 39.2975 47.6022 39.6076 47.781L45.9589 51.4365C46.2658 51.6131 46.6131 51.7056 46.9662 51.7049C47.3194 51.7041 47.6662 51.6101 47.9724 51.4322L61.5287 43.5619L61.5285 43.5622ZM62.8607 13.3395C62.861 13.7021 62.9563 14.0581 63.1371 14.3713C63.3179 14.6844 63.5775 14.9435 63.8896 15.1221C64.2018 15.3007 64.5551 15.3924 64.9137 15.3879C65.2724 15.3834 65.6234 15.2828 65.931 15.0963L72.0145 11.4063C72.3148 11.2243 72.5634 10.9669 72.7361 10.659C72.9088 10.3512 72.9997 10.0034 73 9.64942V2.12942C72.9994 1.76702 72.9038 1.41125 72.7229 1.09838C72.542 0.785508 72.2822 0.52671 71.9702 0.348356C71.6581 0.170002 71.3049 0.0784685 70.9464 0.0830809C70.588 0.0876933 70.2372 0.188287 69.9297 0.374613L63.8465 4.0647C63.5461 4.24661 63.2974 4.50406 63.1247 4.81198C62.9519 5.11991 62.861 5.46781 62.8607 5.82182V13.3415V13.3395Z" fill="#007FFF"/>
</g>
<defs>
<clipPath id="clip0_12_90">
<rect width="73" height="64" fill="white"/>
</clipPath>
</defs>
</svg>
