<svg width="33" height="71" viewBox="0 0 33 71" fill="none" xmlns="http://www.w3.org/2000/svg">
<g clip-path="url(#clip0_12_80)">
<path d="M22.6388 7.90283C19.6727 4.3721 17.1184 0.786018 16.5966 0.0413585C16.5842 0.0282897 16.5693 0.0178849 16.5527 0.0107754C16.5362 0.00366596 16.5184 0 16.5004 0C16.4824 0 16.4646 0.00366596 16.4481 0.0107754C16.4316 0.0178849 16.4166 0.0282897 16.4042 0.0413585C15.8824 0.786147 13.3282 4.3721 10.3619 7.90283C-15.098 40.4795 14.3719 62.4642 14.3719 62.4642L14.619 62.6297C14.8387 66.0225 15.3881 70.9051 15.3881 70.9051H17.5853C17.5853 70.9051 18.1344 66.0501 18.3542 62.6299L18.6014 62.4366C18.6289 62.4643 48.0988 40.4797 22.6388 7.90283ZM16.4866 61.9676C16.4866 61.9676 15.1683 60.8368 14.8112 60.2576V60.2023L16.4042 24.7292C16.4042 24.6189 16.5691 24.6189 16.5691 24.7292L18.162 60.2023V60.2576C17.8049 60.8368 16.4866 61.9677 16.4866 61.9677V61.9676Z" fill="#01EC64"/>
</g>
<defs>
<clipPath id="clip0_12_80">
<rect width="33" height="71" fill="white"/>
</clipPath>
</defs>
</svg>
