<svg width="97" height="66" viewBox="0 0 97 66" fill="none" xmlns="http://www.w3.org/2000/svg">
<g clip-path="url(#clip0_12_132)">
<path d="M28.8556 43.5519L31.8035 53.0995C32.4658 55.2673 32.742 56.7806 32.6314 57.6431C34.2437 53.3329 35.3701 48.6357 36.0111 43.5519H39.5557C38.0316 51.8285 36.0213 57.843 33.526 61.595C31.5818 64.4863 29.452 65.9319 27.1327 65.9319C26.5143 65.9319 25.752 65.7454 24.8473 65.3752V63.38C25.2893 63.4447 25.8079 63.4793 26.4043 63.4793C27.4862 63.4793 28.3583 63.18 29.0218 62.5825C29.8161 61.8547 30.2138 61.0366 30.2138 60.1298C30.2138 59.5106 29.9037 58.24 29.2862 56.3178L25.1789 43.5519H28.8554H28.8556ZM6.2942 37.6835L11.6936 54.1279H11.727L17.1595 37.6835H21.598C22.5699 45.8388 23.144 53.3006 23.3202 60.0641H19.5781C19.4464 53.7416 19.0817 47.7963 18.4853 42.2271H18.4527L12.7544 60.0641H9.90461L4.24072 42.2271H4.20738C3.78717 47.5756 3.52269 53.5209 3.41243 60.0641H0C0.220523 52.1063 0.7724 44.6468 1.65563 37.6835H6.29439H6.2942Z" fill="#00758F"/>
<path d="M66.7818 37.3514C72.5899 37.3514 75.494 41.0554 75.494 48.4597C75.494 52.4832 74.6206 55.5224 72.8756 57.5756C72.5611 57.9508 72.2134 58.275 71.8474 58.5753L75.9576 60.6039L75.9536 60.6037L74.4943 63.1192L69.1417 60.0017C68.2544 60.264 67.2782 60.3951 66.2144 60.3951C63.3626 60.3951 61.2324 59.5655 59.824 57.9083C58.278 56.075 57.5054 53.189 57.5054 49.2551C57.5054 45.2542 58.3773 42.2266 60.1229 40.1707C61.7128 38.2902 63.9328 37.3513 66.7818 37.3513V37.3514ZM48.996 37.384C51.0718 37.384 52.9593 37.9384 54.6595 39.0434L53.7959 40.9642C52.3411 40.347 50.9068 40.037 49.4923 40.037C48.3446 40.037 47.4603 40.3127 46.8438 40.8676C46.2239 41.4175 45.8404 42.1252 45.8404 42.9879C45.8404 44.3136 46.7866 45.4632 48.5335 46.4345C49.1058 46.7468 49.6762 47.0626 50.2445 47.3821L50.3748 47.4553L50.4402 47.492L50.5707 47.5652L50.6359 47.6019L50.7662 47.6752C52.0886 48.4194 53.3329 49.1297 53.3329 49.1297C55.0797 50.3674 55.9504 51.6871 55.9504 53.8605C55.9504 55.7586 55.2536 57.3167 53.8645 58.5359C52.4745 59.7497 50.6071 60.3582 48.2685 60.3582C46.0812 60.3582 43.9614 59.6577 41.9081 58.2685L42.8687 56.346C44.6357 57.2301 46.2347 57.6717 47.6705 57.6717C49.0172 57.6717 50.0713 57.3716 50.8338 56.7789C51.5949 56.1819 52.0509 55.3492 52.0509 54.2934C52.0509 52.9645 51.1248 51.8285 49.426 50.8756C48.8943 50.5823 48.3641 50.2862 47.8356 49.9873L47.7054 49.9138C47.4663 49.7789 47.2255 49.6424 46.9897 49.5087L46.8618 49.4361C45.7146 48.7848 44.7228 48.2157 44.7228 48.2157C43.0246 46.9757 42.173 45.6453 42.173 43.4531C42.173 41.6401 42.808 40.1747 44.0762 39.0599C45.3475 37.9426 46.9876 37.384 48.996 37.384ZM82.3198 37.6835V57.3111H89.3747V60.0641H78.7418V37.6835H82.3198ZM93.2948 57.3196V57.7848H92.5192V60.0617H91.9262V57.7848H91.1205V57.3196H93.295H93.2948ZM94.7271 57.3196L95.4718 59.1887L96.156 57.3196H96.9966V60.0617H96.4377V57.9748L95.659 60.0617H95.2561L94.4761 57.9748H94.4461V60.0617H93.9174V57.3196H94.7273H94.7271ZM66.4166 40.1038C62.9939 40.1038 61.2816 42.9234 61.2816 48.559C61.2816 51.7871 61.7354 54.1279 62.6411 55.5869C63.48 56.9372 64.7939 57.611 66.5829 57.611C70.0056 57.611 71.7176 54.7694 71.7176 49.0889C71.7176 45.9059 71.2639 43.5851 70.3593 42.1254C69.5194 40.7782 68.2061 40.1038 66.4167 40.1038H66.4166Z" fill="#F29111"/>
<path d="M57.4456 1.38677C58.581 -1.39809 62.551 0.710884 64.0916 1.68367C64.4692 1.92706 64.9023 2.44126 65.3352 2.63131C66.0106 2.65779 66.6854 2.71055 67.362 2.73873C68.6309 3.03639 69.8196 3.27959 70.8195 3.84806C75.4664 6.57978 78.4914 9.3635 81.2754 13.9616C81.8703 14.9355 82.1675 15.9894 82.6535 17.0433C83.3279 18.6143 84.0858 20.2633 84.8686 21.7488C85.2191 22.4531 85.4902 23.2362 85.9769 23.8309C86.1669 24.1029 86.7067 24.1831 87.0293 24.3455C87.9212 24.8064 89.0019 25.1562 89.8408 25.6971C91.4074 26.6721 92.9221 27.8341 94.299 29.0236C94.8122 29.4827 95.162 30.1327 95.6509 30.6183V30.8634C95.2169 30.9964 94.7844 31.1325 94.3515 31.2417C93.4059 31.4841 92.5683 31.4293 91.651 31.6719C91.0842 31.836 90.3803 32.0526 89.7858 32.1076L89.8408 32.1628C90.1905 33.1604 92.0828 33.9717 92.9482 34.5683C93.9993 35.3255 94.9733 36.2438 95.7572 37.2985C96.0279 37.5676 96.2987 37.8125 96.5681 38.0809C96.7564 38.3528 96.8094 38.7046 97 38.947V39.0291C96.789 38.9548 96.6372 38.8129 96.4934 38.6647L96.4076 38.5752C96.3218 38.4863 96.2352 38.399 96.1365 38.3269C95.5401 37.9203 94.9479 37.4339 94.3515 37.0559C93.3261 36.4065 92.137 36.0296 91.0842 35.3777C90.4889 34.9993 89.9215 34.5683 89.3541 34.1353C88.8397 33.7557 88.2732 33.0269 87.95 32.486C87.7596 32.1872 87.7335 31.836 87.516 31.6199C87.5548 31.2589 87.8862 31.1516 88.2206 31.0635L88.2975 31.0433C88.4129 31.0134 88.5258 30.9835 88.6243 30.944C90.0289 30.3487 91.7035 30.1327 93.8659 30.1868C93.7844 29.6448 92.4333 28.9695 92.0019 28.645C91.1361 28.022 90.2193 27.3721 89.3008 26.8051C88.8141 26.5082 87.9754 26.2915 87.4362 26.0488C86.7067 25.7512 85.0851 25.4537 84.6808 24.8867C83.9941 23.993 83.5007 22.927 83.0218 21.8502L82.8915 21.5563C82.848 21.4584 82.8044 21.3605 82.7607 21.2626C82.1946 19.9659 81.4914 18.6139 80.924 17.2861C80.6273 16.6384 80.4911 16.07 80.1662 15.4487C78.1945 11.6366 75.2764 8.44499 71.7383 6.20042C70.5757 5.47007 69.2792 4.79419 67.8481 4.33483C67.0371 4.09031 66.0637 4.22553 65.1996 4.03793H64.6308C64.1454 3.90139 63.7402 3.38776 63.3615 3.11695C62.5251 2.55 61.6873 2.16931 60.687 1.7648C60.3365 1.60255 59.3356 1.2247 58.9863 1.52217C58.7699 1.57645 58.6602 1.65796 58.607 1.87468C58.3918 2.19806 58.581 2.68521 58.715 2.98344C59.1208 3.84768 59.6876 4.36131 60.2022 5.09166C60.6599 5.73937 61.2284 6.46972 61.553 7.17397C62.2532 8.68781 62.5792 10.365 63.2281 11.8787C63.4687 12.4479 63.8493 13.0956 64.1996 13.6091C64.4965 14.0166 65.0363 14.3112 65.1996 14.8271C65.525 15.368 64.7123 17.1526 64.5242 17.7194C63.8203 19.9371 63.9568 23.0198 64.7672 24.9422L64.8104 25.0435L64.8536 25.1462C65.1495 25.8503 65.4663 26.6084 66.2531 26.8053C66.3073 26.7516 66.2531 26.7798 66.3605 26.7516C66.5509 25.2636 66.6045 23.8307 67.1183 22.6666C67.4152 21.9387 68.008 21.4241 68.4144 20.8299C68.6853 20.9918 68.6853 21.4799 68.8467 21.8029C69.1983 22.6407 69.5759 23.5592 70.0094 24.3994C70.8991 26.1298 71.9001 27.8074 73.0344 29.321C73.4143 29.8617 73.9532 30.4568 74.4394 30.9438C74.6559 31.1323 74.8984 31.2413 75.0612 31.4839H75.1142V31.5656C74.3037 31.2674 73.7899 30.4304 73.1435 29.9417C71.9265 29.0232 70.469 27.6438 69.6301 26.3202C69.2792 25.5604 68.9 24.8321 68.5218 24.076V24.0214C68.3602 24.2373 68.4144 24.4518 68.3335 24.7786C67.9826 26.1298 68.2528 27.6712 67.0371 28.1572C65.659 28.7265 64.631 27.2387 64.1996 26.5627C62.8212 24.3187 62.4436 20.533 63.4157 17.4772C63.6317 16.8007 63.661 15.9894 64.038 15.4493C63.9566 14.961 63.5795 14.8275 63.3615 14.5283C62.9833 14.017 62.6596 13.4213 62.3634 12.8534C61.7947 11.744 61.39 10.4186 60.9583 9.22886C60.7684 8.74303 60.7141 8.25531 60.5248 7.79539C60.202 7.09341 59.6069 6.38915 59.1479 5.76811C58.5263 4.8755 56.7158 3.14551 57.4456 1.38677ZM66.3067 6.68474C66.3789 6.75698 66.4661 6.82014 66.5562 6.88236L66.665 6.95687C66.8099 7.0571 66.9503 7.16262 67.0363 7.30635C67.1727 7.49659 67.1981 7.68438 67.3614 7.875C67.3614 8.52498 67.1727 8.9571 66.7917 9.2264C66.7917 9.2264 66.7658 9.25476 66.7391 9.28124C66.5231 8.84798 66.3338 8.417 66.1163 7.98412C65.8484 7.60628 65.4697 7.30653 65.2515 6.87479H65.199V6.82052C65.525 6.74015 65.8484 6.68474 66.3067 6.68474Z" fill="#00758F"/>
</g>
<defs>
<clipPath id="clip0_12_132">
<rect width="97" height="66" fill="white"/>
</clipPath>
</defs>
</svg>
