<svg width="64" height="64" viewBox="0 0 64 64" fill="none" xmlns="http://www.w3.org/2000/svg">
<g clip-path="url(#clip0_12_86)">
<path d="M44.3452 44.5201C46.707 44.2636 48.4987 42.1275 48.4172 39.5638C48.336 37.0004 46.2997 34.9495 43.8565 34.9495H43.6937C41.1687 35.035 39.2142 37.2567 39.2957 39.9056C39.3772 41.1874 39.8657 42.2982 40.5987 43.0673C37.8297 48.7927 33.5947 52.9797 27.2422 56.4831C22.9257 58.8758 18.4465 59.7304 13.9672 59.1323C10.3022 58.6195 7.45175 56.9107 5.65975 54.0905C3.05375 49.9035 2.8095 45.3744 5.0085 40.8456C6.556 37.5984 8.999 35.2058 10.5465 34.0094C10.2207 32.8986 9.732 31.0188 9.48775 29.6517C-2.3215 38.624 -1.09975 50.758 2.48375 56.4831C5.17125 60.7559 10.628 63.4049 16.6547 63.4049C18.2835 63.4049 19.9122 63.2338 21.5412 62.8068C31.966 60.6704 39.866 54.176 44.3452 44.5201ZM58.6792 33.9242C52.4895 26.3189 43.368 22.1319 32.9432 22.1319H31.6402C30.9072 20.5938 29.3597 19.5683 27.6495 19.5683H27.4865C24.962 19.6538 23.0075 21.8754 23.0887 24.5246C23.1702 27.088 25.2062 29.1389 27.6495 29.1389H27.8122C29.604 29.0534 31.1515 27.857 31.803 26.2334H33.269C39.4587 26.2334 45.3225 28.1133 50.6165 31.7878C54.6885 34.6077 57.6205 38.2822 59.2492 42.7255C60.6337 46.3145 60.5522 49.818 59.0862 52.8089C56.806 57.3377 52.9782 59.8159 47.9287 59.8159C44.671 59.8159 41.5762 58.7903 39.9472 58.0212C39.0515 58.8758 37.4225 60.2429 36.2822 61.0977C39.7845 62.8066 43.368 63.7466 46.7885 63.7466C54.607 63.7466 60.3895 59.2176 62.5885 54.6888C64.9502 49.7325 64.7872 41.1874 58.6792 33.9242ZM17.3062 45.9725C17.3877 48.5361 19.4237 50.5868 21.867 50.5868H22.03C24.5547 50.5015 26.5092 48.2796 26.4277 45.6307C26.3465 43.067 24.3102 41.0164 21.867 41.0164H21.7042C21.5412 41.0164 21.2967 41.0164 21.1342 41.1016C17.795 35.291 16.4105 28.9679 16.8992 22.1317C17.2247 17.0046 18.8537 12.561 21.7042 8.88656C24.066 5.72485 28.6267 4.18675 31.7217 4.10151C40.3545 3.93049 44.0192 15.21 44.2637 19.739C45.3225 19.9953 47.1142 20.5936 48.336 21.0209C47.3585 7.17797 39.2142 0 31.396 0C24.066 0 17.3062 5.55436 14.6185 13.7576C10.8722 24.6953 13.3155 35.2058 17.8762 43.4946C17.4692 44.0926 17.2247 45.0327 17.3062 45.9727V45.9725Z" fill="#764ABC"/>
</g>
<defs>
<clipPath id="clip0_12_86">
<rect width="64" height="64" fill="white"/>
</clipPath>
</defs>
</svg>
