<svg width="100" height="100" viewBox="0 0 100 100" fill="none" xmlns="http://www.w3.org/2000/svg">
<g clip-path="url(#clip0_14_252)">
<path d="M5.05 0L0 5.05L8.89615 20.4346L14.6654 19.5885L49.8808 54.8077L46.8769 57.6923C45.3385 59.2308 45.3385 61.5615 46.8769 63.1L48.4385 64.6654C49.9769 66.2038 52.3308 66.2038 53.4846 64.6654L58.0538 69.2308C57.6692 71.5385 58.0538 74.2808 59.9769 76.2038L80.7692 96.8769C85 101.108 91.9231 101.108 96.1538 96.8769C101.154 92.2615 101.108 85.3615 96.8769 81.1308L76.2038 60.3346C74.2808 58.4115 71.5385 57.6423 69.2308 58.4115L64.1808 53.8461C65.3346 52.3077 65.3346 49.9538 64.1808 48.7962L62.7385 47.3577C62.3888 46.9931 61.969 46.7029 61.5044 46.5048C61.0397 46.3066 60.5398 46.2044 60.0346 46.2044C59.5294 46.2044 59.0295 46.3066 58.5648 46.5048C58.1002 46.7029 57.6804 46.9931 57.3308 47.3577L54.8077 49.8808L19.5923 14.6654L20.4308 8.89615L5.04615 0L5.05 0ZM80.05 0.119231C72.4615 -0.511538 62.4 4.51923 57.6923 8.89231C51.9 14.6846 52.8462 22.2577 57.45 29.5692L49.2808 37.7423L55.05 44.2308C58.1269 41.5385 62.6654 41.5385 65.7423 44.2308L67.3077 45.7923L67.6692 46.1538L71.0346 42.7885C77.9885 46.8769 85.2269 47.4654 90.7461 41.9462C96.1308 36.9462 101.969 24.6154 99.2769 17.3077L88.4615 28.4846C86.9231 30.0231 84.5923 30.0231 83.0538 28.4846L71.8731 17.3077C71.5085 16.958 71.2183 16.5383 71.0201 16.0736C70.8219 15.609 70.7198 15.109 70.7198 14.6038C70.7198 14.0987 70.8219 13.5987 71.0201 13.1341C71.2183 12.6694 71.5085 12.2496 71.8731 11.9L83.0577 0.723077C82.0961 0.384615 81.1346 0.211538 80.05 0.119231ZM37.7423 48.0769L23.7962 62.0192C22.2975 61.6863 20.7659 61.525 19.2308 61.5385C8.46154 61.5385 0 70 0 80.7692C0 91.5385 8.46154 100 19.2308 100C30 100 38.4615 91.5385 38.4615 80.7692C38.4615 78.7962 38.15 76.9 37.6192 75.1192L45.7923 66.9462L44.5923 65.3846C41.5154 62.3077 41.5385 57.6461 44.2308 54.5654L37.7385 48.0769H37.7423ZM67.55 65.6269C68.0308 65.6269 68.4846 65.7192 68.8692 66.1077L91.5885 88.8231C92.3577 89.5923 92.3577 90.8154 91.5885 91.5846C90.8192 92.3538 89.5885 92.3538 88.8192 91.5846L66.1077 68.8692C65.3385 68.1 65.3385 66.8769 66.1077 66.1077C66.4923 65.7231 67.0692 65.6269 67.55 65.6269ZM21.8769 70.7885L29.2077 78.1231L26.5615 88.0961L16.5885 90.7423L9.25385 83.4077L11.9 73.4346L21.8769 70.7885Z" fill="#00BF96"/>
</g>
<defs>
<clipPath id="clip0_14_252">
<rect width="100" height="100" fill="white"/>
</clipPath>
</defs>
</svg>
