<svg width="128" height="128" viewBox="0 0 128 128" fill="none" xmlns="http://www.w3.org/2000/svg">
<path d="M117.35 52C117.345 50.1445 116.608 48.366 115.3 47.05L80.95 12.7C79.634 11.3919 77.8555 10.6553 76 10.65C74.1467 10.666 72.3719 11.401 71.05 12.7L58.35 25.4L29.1 36.4C27.9524 36.8349 26.9382 37.5619 26.1578 38.509C25.3773 39.4561 24.8576 40.5905 24.65 41.8L13.05 111.5C12.9712 111.97 13.0074 112.452 13.1554 112.904C13.3034 113.357 13.5589 113.767 13.9 114.1C14.1671 114.389 14.4922 114.619 14.854 114.774C15.2159 114.929 15.6064 115.006 16 115H16.5L86.2 103.4C87.417 103.212 88.5608 102.7 89.5111 101.917C90.4613 101.133 91.183 100.109 91.6 98.95L102.6 69.7L115.3 57C115.954 56.3424 116.471 55.5622 116.823 54.7042C117.175 53.8463 117.354 52.9273 117.35 52ZM86 96.8C85.9396 96.9577 85.8382 97.0963 85.7064 97.2018C85.5746 97.3072 85.417 97.3757 85.25 97.4L24.75 107.5L51.2 81.05C53.2339 82.336 55.5936 83.0127 58 83C60.5711 83 63.0846 82.2376 65.2224 80.8091C67.3602 79.3807 69.0265 77.3503 70.0104 74.9749C70.9944 72.5995 71.2518 69.9856 70.7502 67.4639C70.2486 64.9421 69.0105 62.6257 67.1924 60.8076C65.3743 58.9896 63.0579 57.7514 60.5362 57.2498C58.0144 56.7482 55.4005 57.0057 53.0251 57.9896C50.6497 58.9735 48.6193 60.6398 47.1909 62.7776C45.7624 64.9155 45 67.4289 45 70C44.9873 72.4064 45.664 74.7661 46.95 76.8L20.5 103.25L30.6 42.75C30.6243 42.583 30.6928 42.4254 30.7982 42.2936C30.9037 42.1618 31.0424 42.0605 31.2 42L59.25 31.5L96.5 68.75L86 96.8ZM51 70C51 68.6156 51.4105 67.2622 52.1797 66.111C52.9489 64.9599 54.0421 64.0627 55.3212 63.5329C56.6003 63.0031 58.0078 62.8644 59.3656 63.1345C60.7235 63.4046 61.9708 64.0713 62.9497 65.0503C63.9287 66.0292 64.5954 67.2765 64.8655 68.6344C65.1356 69.9923 64.997 71.3997 64.4671 72.6788C63.9373 73.9579 63.0401 75.0511 61.889 75.8203C60.7378 76.5895 59.3845 77 58 77C56.1435 77 54.363 76.2625 53.0502 74.9498C51.7375 73.637 51 71.8565 51 70ZM111.05 52.7L100 63.75L64.25 28L75.3 16.95C75.389 16.853 75.4972 16.7756 75.6177 16.7226C75.7382 16.6696 75.8684 16.6423 76 16.6423C76.1316 16.6423 76.2618 16.6696 76.3823 16.7226C76.5028 16.7756 76.611 16.853 76.7 16.95L111.05 51.3C111.147 51.389 111.224 51.4972 111.277 51.6177C111.33 51.7382 111.358 51.8684 111.358 52C111.358 52.1317 111.33 52.2619 111.277 52.3824C111.224 52.5029 111.147 52.611 111.05 52.7Z" fill="#00BF96"/>
</svg>
